<mxfile host="app.diagrams.net" modified="2021-03-12T05:26:14.380Z" agent="5.0 (Macintosh)" etag="VPFbw5gsaOw7AqD5GAiB" version="14.2.6" type="github">
  <diagram id="T2z8mQY8asgc8jJB1Qcb" name="Page-1">
    <mxGraphModel dx="946" dy="623" grid="1" gridSize="10" guides="1" tooltips="1" connect="1" arrows="1" fold="1" page="1" pageScale="1" pageWidth="827" pageHeight="1169" math="0" shadow="0">
      <root>
        <mxCell id="0" />
        <mxCell id="1" parent="0" />
        <mxCell id="k424tER8OYdOJKjlTEil-1" value="" style="rounded=0;whiteSpace=wrap;html=1;" vertex="1" parent="1">
          <mxGeometry x="350" y="290" width="120" height="60" as="geometry" />
        </mxCell>
      </root>
    </mxGraphModel>
  </diagram>
</mxfile>
